# xmcd
#
# Track frame offsets:
#	150
#	19532
#	35715
#	55737
#	74407
#	91860
#	107817
#	124652
#	142455
#	155917
#	173750
#	193967
#	210352
#
# Disc length: 3059 seconds
#
# Revision: 2
# Processed by: cddbd v1.4PL0 Copyright (c) Steve Scherf et al.
# Submitted via: audiograbber 1.81.03
#
DISCID=bf0bf10d
DTITLE=Big Balls - Big Balls
DYEAR=1900
DGENRE=Blues
TTITLE0=Direto Pro Paredão
TTITLE1=A Arma e a Flor
TTITLE2=O Cego e a Guita
TTITLE3=Balacobaco
TTITLE4=Dans la Nuit
TTITLE5=Será Possível
TTITLE6=Minha Cabeça
TTITLE7=Meu Destino
TTITLE8=Roadhouse Blues
TTITLE9=Raio de Sol
TTITLE10=Eu Não Vou Pagar
TTITLE11=Anjo Azul
TTITLE12=O Anel de Zapala
EXTD=
EXTT0=
EXTT1=
EXTT2=
EXTT3=
EXTT4=
EXTT5=
EXTT6=
EXTT7=
EXTT8=
EXTT9=
EXTT10=
EXTT11=
EXTT12=
PLAYORDER=
